<?xml version="1.0" encoding="iso-8859-1"?>
<!-- Uploaded to: SVG Repo, www.svgrepo.com, Generator: SVG Repo Mixer Tools -->
<svg height="100px" width="100px" version="1.1" id="Layer_1" xmlns="http://www.w3.org/2000/svg" xmlns:xlink="http://www.w3.org/1999/xlink" 
	 viewBox="0 0 512 512" xml:space="preserve">
<path style="fill:#E7E4CD;" d="M375.239,343.524L215.76,435.599c-16.515,9.534-37.631,3.876-47.167-12.638L7.463,143.873
	c-9.534-16.515-3.876-37.631,12.638-47.167L179.58,4.632c16.515-9.534,37.632-3.876,47.167,12.638l161.131,279.087
	C397.412,312.872,391.754,333.989,375.239,343.524z"/>
<path style="fill:#C1BDAB;" d="M389.444,299.071l-1.565-2.71c0-0.001-0.001-0.001-0.001-0.002l-63.068-109.238L261.768,77.929l0,0
	L226.746,17.27c-8.045-13.933-24.334-20.139-39.147-16.012l49.25,85.303c6.168,10.683,6.168,23.845,0,34.528l-121.27,210.046
	l54.582,94.539c9.534,16.515,30.652,22.173,47.167,12.638l159.478-92.075C393.32,336.702,398.978,315.585,389.444,299.071z"/>
<g>
	<path style="fill:#47423F;" d="M74.481,98.831c-2.719,1.57-4.253,4.394-4.31,7.319c-5.513,0.054-10.84,1.555-15.487,4.239
		c-0.026,0.015-0.052,0.031-0.077,0.047c-0.026,0.014-0.053,0.029-0.079,0.043c-7.002,4.043-12.467,10.75-14.723,19.155
		c-4.509,16.811,5.5,34.147,22.313,38.647c8.406,2.25,16.948,0.871,23.95-3.172c0.026-0.015,0.052-0.031,0.077-0.047
		c0.026-0.014,0.053-0.029,0.079-0.043c4.647-2.683,8.61-6.545,11.414-11.293c2.561,1.412,5.774,1.496,8.493-0.074
		c4.132-2.385,5.548-7.665,3.164-11.795l-23.019-39.87C83.893,97.859,78.611,96.445,74.481,98.831z M77.6,150.08L77.6,150.08
		l-0.005-0.008c-0.028,0.016-0.054,0.035-0.081,0.052c-0.025,0.013-0.051,0.024-0.075,0.038l0.005,0.007l0,0
		c-3.308,1.909-7.161,2.418-10.849,1.431c-7.615-2.037-12.148-9.89-10.106-17.503c0.99-3.688,3.356-6.771,6.664-8.68l0,0
		l0.005,0.008c0.028-0.016,0.054-0.035,0.081-0.052c0.025-0.013,0.051-0.024,0.075-0.038l-0.005-0.007l0,0
		c3.308-1.909,7.161-2.418,10.849-1.431c3.749,1.004,6.746,3.419,8.584,6.519l0.168,0.291c1.766,3.142,2.361,6.945,1.355,10.692
		C83.275,145.087,80.908,148.169,77.6,150.08z"/>
	<path style="fill:#47423F;" d="M237.454,156.165c-20.583-5.924-41.75,2.945-52.41,20.182l6.673-24.905
		c2.654-9.904-7.992-18.073-16.872-12.946l-36.449,21.044c-8.881,5.127-7.129,18.431,2.776,21.085l24.905,6.673
		c-20.258,0.613-38.522,14.511-43.683,35.299c-6.166,24.834,9.287,50.006,33.991,56.671l71.26,19.226
		c9.994,2.695,20.252-3.227,22.914-13.23l18.98-71.326C276.119,189.211,262.045,163.242,237.454,156.165z"/>
</g>
<path style="fill:#E7E4CD;" d="M296.24,507.368l-159.478-92.075c-16.515-9.534-22.173-30.652-12.638-47.167L285.254,89.039
	c9.534-16.515,30.652-22.173,47.167-12.638l159.478,92.075c16.515,9.534,22.173,30.652,12.638,47.167L343.406,494.729
	C333.872,511.244,312.755,516.903,296.24,507.368z"/>
<path style="fill:#C1BDAB;" d="M498.831,173.734L333.927,459.355c-9.534,16.515-30.652,22.173-47.167,12.638l-166.012-95.847
	c-4.126,14.814,2.079,31.103,16.012,39.147l159.478,92.075c16.515,9.534,37.631,3.876,47.167-12.638l161.131-279.087
	C512.581,201.71,509.811,184.5,498.831,173.734z"/>
<g>
	<path style="fill:#8D472E;" d="M359.338,121.844c-2.719-1.57-5.932-1.485-8.494-0.073c-2.804-4.748-6.766-8.609-11.414-11.293
		c-0.026-0.015-0.053-0.029-0.079-0.043c-0.025-0.016-0.051-0.032-0.077-0.047c-7.002-4.043-15.543-5.422-23.95-3.173
		c-16.813,4.5-26.823,21.837-22.312,38.647c2.255,8.405,7.719,15.112,14.723,19.155c0.026,0.015,0.053,0.029,0.079,0.043
		c0.025,0.016,0.051,0.032,0.077,0.047c4.647,2.683,9.974,4.184,15.487,4.239c0.058,2.925,1.591,5.749,4.31,7.318
		c4.132,2.385,9.412,0.971,11.796-3.157l23.019-39.87C364.885,129.509,363.468,124.229,359.338,121.844z M316.515,150.17
		L316.515,150.17l0.005-0.008c-0.028-0.016-0.056-0.03-0.085-0.044c-0.023-0.016-0.046-0.031-0.07-0.046l-0.005,0.007l0,0
		c-3.308-1.909-5.674-4.993-6.664-8.68c-2.043-7.613,2.491-15.465,10.105-17.503c3.689-0.988,7.542-0.479,10.85,1.431l0,0
		l-0.005,0.008c0.028,0.016,0.056,0.03,0.085,0.044c0.023,0.016,0.046,0.031,0.07,0.046l0.005-0.007l0,0
		c3.308,1.909,5.674,4.993,6.664,8.68c1.006,3.749,0.411,7.551-1.355,10.693l-0.168,0.291c-1.838,3.099-4.834,5.516-8.583,6.519
		C323.676,152.588,319.822,152.08,316.515,150.17z"/>
	<path style="fill:#8D472E;" d="M269.323,461.925c2.719,1.57,5.932,1.485,8.494,0.072c2.804,4.748,6.766,8.609,11.414,11.293
		c0.026,0.015,0.053,0.029,0.079,0.043c0.025,0.016,0.051,0.032,0.077,0.047c7.002,4.043,15.543,5.422,23.95,3.173
		c16.813-4.5,26.823-21.837,22.312-38.647c-2.255-8.405-7.719-15.112-14.723-19.155c-0.026-0.015-0.053-0.029-0.079-0.044
		c-0.025-0.016-0.051-0.032-0.077-0.047c-4.647-2.683-9.974-4.184-15.487-4.239c-0.058-2.924-1.591-5.749-4.31-7.318
		c-4.132-2.385-9.412-0.971-11.796,3.157l-23.019,39.87C263.775,454.26,265.192,459.54,269.323,461.925z M312.146,433.599
		L312.146,433.599l-0.005,0.008c0.028,0.016,0.056,0.03,0.085,0.044c0.023,0.016,0.046,0.031,0.07,0.046l0.005-0.007l0,0
		c3.308,1.909,5.675,4.993,6.664,8.68c2.043,7.613-2.491,15.465-10.105,17.503c-3.689,0.988-7.542,0.479-10.85-1.431l0,0
		l0.005-0.008c-0.028-0.016-0.056-0.03-0.085-0.044c-0.023-0.016-0.046-0.031-0.07-0.046l-0.005,0.007l0,0
		c-3.308-1.909-5.674-4.993-6.664-8.68c-1.006-3.749-0.411-7.551,1.355-10.693l0.168-0.291c1.838-3.099,4.834-5.516,8.583-6.519
		C304.985,431.181,308.838,431.69,312.146,433.599z"/>
	<path style="fill:#8D472E;" d="M365.268,334.316l-71.26,19.226c-9.994,2.697-20.252-3.227-22.914-13.229l-18.98-71.326
		c-6.58-24.726,7.494-50.694,32.084-57.771c25.119-7.23,51.121,7.562,57.816,32.721c25.135-6.781,50.946,8.34,57.245,33.709
		C405.426,302.478,389.972,327.651,365.268,334.316z"/>
</g>
</svg>